<svg id="Capa_1" enable-background="new 0 0 512 512" height="512" viewBox="0 0 512 512" width="512" xmlns="http://www.w3.org/2000/svg"><g><g><path d="m187.855 495.35h-67.642v-37.463h67.642c5.747 0 10.407 4.659 10.407 10.407v16.65c0 5.746-4.659 10.406-10.407 10.406z" fill="#26457d"/></g><g><path d="m322.081 495.35h67.642v-37.463h-67.642c-5.747 0-10.406 4.659-10.406 10.407v16.65c0 5.746 4.659 10.406 10.406 10.406z" fill="#26457d"/></g><g><path d="m197.797 457.886.465-193.561h-72.846v193.561z" fill="#3b66c1"/></g><g><path d="m161.301 457.886v-148.813-44.748h-58.779v193.561z" fill="#4073c8"/></g><g><path d="m170.164 495.35h-57.34c-5.69 0-10.302-4.612-10.302-10.302v-27.162h67.642c5.747 0 10.407 4.659 10.407 10.407v16.65c0 5.747-4.659 10.407-10.407 10.407z" fill="#30579d"/></g><g><path d="m314.203 457.886-.465-193.561h72.846v193.561z" fill="#3b66c1"/></g><g><path d="m350.699 457.886v-148.813-44.748h58.779v193.561z" fill="#4073c8"/></g><g><path d="m341.836 495.35h57.34c5.69 0 10.302-4.612 10.302-10.302v-27.162h-67.642c-5.747 0-10.406 4.659-10.406 10.407v16.65c-.001 5.747 4.658 10.407 10.406 10.407z" fill="#30579d"/></g><g><path d="m249.392 201.104 80.937-37.741 5.96-16.375 31.293 11.39-7.729 21.236c-1.888 5.187-5.759 9.412-10.762 11.745l-86.051 40.126c-8.576 3.999-18.817.065-22.45-8.791-3.404-8.296.676-17.801 8.802-21.59z" fill="#eaac9d"/></g><g><circle cx="361.608" cy="41.626" fill="#ffddce" r="41.626"/></g><g><path d="m380.5 4.538c2.895 5.671 4.538 12.088 4.538 18.892 0 22.989-18.637 41.626-41.626 41.626-6.804 0-13.221-1.643-18.892-4.538 6.886 13.49 20.903 22.734 37.088 22.734 22.989 0 41.626-18.637 41.626-41.626 0-16.185-9.244-30.203-22.734-37.088z" fill="#ffcbbe"/></g><g><path d="m409.478 264.325h-95.74v-149.853c0-17.242 13.977-31.22 31.22-31.22h33.301c17.242 0 31.22 13.977 31.22 31.22v149.853z" fill="#95d6a4"/></g><g><path d="m403.629 175.848c-19.975 39.689-54.442 66.011-89.891 72.95v15.527h95.74v-101.599c-1.724 4.405-3.667 8.786-5.849 13.122z" fill="#78c2a4"/></g><g><path d="m378.259 147.772v106.146c0 9.196-7.455 16.65-16.65 16.65-9.196 0-16.65-7.455-16.65-16.65v-106.146z" fill="#ffddce"/></g><g><g><circle cx="150.392" cy="41.626" fill="#ffddce" r="41.626"/></g><g><path d="m169.284 4.538c2.895 5.671 4.538 12.088 4.538 18.892 0 22.989-18.637 41.626-41.626 41.626-6.804 0-13.221-1.643-18.892-4.538 6.886 13.49 20.903 22.734 37.088 22.734 22.989 0 41.626-18.637 41.626-41.626 0-16.185-9.244-30.203-22.734-37.088z" fill="#ffcbbe"/></g><g><path d="m102.522 264.325h95.74v-149.853c0-17.242-13.977-31.22-31.22-31.22h-33.301c-17.242 0-31.22 13.977-31.22 31.22v149.853z" fill="#90d8f9"/></g><g><path d="m188.696 175.848c-19.276 38.301-52.048 64.153-86.174 72.151v16.326h95.74v-112.232c-2.456 7.988-5.634 15.942-9.566 23.755z" fill="#6bbef6"/></g><g><path d="m262.608 201.104-80.937-37.741-5.96-16.375-31.293 11.39 7.729 21.236c1.888 5.187 5.759 9.412 10.762 11.745l86.051 40.126c8.576 3.999 18.817.065 22.45-8.791 3.404-8.296-.676-17.801-8.802-21.59z" fill="#ffddce"/></g></g><g><g><circle cx="256" cy="428.748" fill="#e28086" r="83.252"/></g><g><path d="m304.438 361.058c9.784 13.649 15.562 30.364 15.562 48.438 0 45.979-37.273 83.252-83.252 83.252-18.074 0-34.789-5.778-48.438-15.562 15.106 21.071 39.785 34.814 67.69 34.814 45.979 0 83.252-37.273 83.252-83.252 0-27.905-13.743-52.584-34.814-67.69z" fill="#dd636e"/></g><g><path d="m279.547 428.748 11.835-11.835c6.503-6.502 6.503-17.045 0-23.547-6.502-6.502-17.045-6.503-23.547 0l-11.835 11.835-11.834-11.835c-6.503-6.504-17.045-6.502-23.547-.001-6.503 6.503-6.503 17.045-.001 23.547l11.835 11.835-11.835 11.835c-6.502 6.502-6.502 17.045.001 23.547 3.251 3.251 7.512 4.877 11.773 4.877s8.522-1.626 11.774-4.877l11.834-11.834 11.835 11.835c3.251 3.252 7.511 4.877 11.773 4.877 4.261 0 8.522-1.626 11.773-4.877 6.503-6.503 6.503-17.045 0-23.547z" fill="#e4f6ff"/></g></g><g><path d="m161.301 465.613c-4.268 0-7.726-3.459-7.726-7.726v-148.814c0-1.199.279-2.381.815-3.454l4.004-8.012c1.907-3.817 6.549-5.366 10.365-3.458 3.817 1.907 5.365 6.548 3.458 10.365l-3.189 6.381v146.99c-.001 4.269-3.46 7.728-7.727 7.728z" fill="#30579d"/></g><g><path d="m350.699 465.613c-4.268 0-7.726-3.459-7.726-7.726v-146.99l-3.189-6.381c-1.907-3.817-.359-8.458 3.458-10.365 3.815-1.909 8.458-.359 10.365 3.458l4.004 8.012c.536 1.072.815 2.255.815 3.454v148.813c0 4.266-3.459 7.725-7.727 7.725z" fill="#30579d"/></g><g><path d="m378.259 155.499h-33.301c-4.268 0-7.726-3.459-7.726-7.726v-31.219c0-4.268 3.459-7.726 7.726-7.726 4.268 0 7.726 3.459 7.726 7.726v23.493h17.848v-23.493c0-4.268 3.459-7.726 7.726-7.726s7.726 3.459 7.726 7.726v31.219c.001 4.267-3.458 7.726-7.725 7.726z" fill="#78c2a4"/></g><g><path d="m144.421 166.106c-3.157 0-6.12-1.949-7.262-5.086l-10.678-29.337c-1.46-4.01.608-8.444 4.618-9.903 4.011-1.457 8.444.608 9.903 4.618l8.035 22.076 16.772-6.104-8.035-22.076c-1.46-4.01.609-8.444 4.618-9.903 4.014-1.46 8.445.609 9.903 4.618l10.677 29.337c1.459 4.01-.609 8.444-4.618 9.903l-31.292 11.389c-.872.317-1.764.468-2.641.468z" fill="#6bbef6"/></g></g></svg>