<svg id="Layer_1" enable-background="new 0 0 512 512" height="512" viewBox="0 0 512 512" width="512" xmlns="http://www.w3.org/2000/svg"><g><g fill="#ffd54f"><path d="m10 442.388c-4.142 0-7.5 3.358-7.5 7.5v7.501c0 4.142 3.358 7.5 7.5 7.5s7.5-3.358 7.5-7.5v-7.501c0-4.142-3.358-7.5-7.5-7.5z"/><path d="m10 220.427c-4.142 0-7.5 3.358-7.5 7.5v14.797c0 4.142 3.358 7.5 7.5 7.5s7.5-3.358 7.5-7.5v-14.797c0-4.142-3.358-7.5-7.5-7.5z"/><path d="m10 176.035c-4.142 0-7.5 3.358-7.5 7.5v14.797c0 4.142 3.358 7.5 7.5 7.5s7.5-3.358 7.5-7.5v-14.797c0-4.142-3.358-7.5-7.5-7.5z"/><path d="m19.387 89.034c-3.687-1.89-8.206-.436-10.096 3.251-2.571 5.014-4.441 10.346-5.558 15.849-.824 4.06 1.799 8.018 5.858 8.842.503.102 1.005.151 1.5.151 3.493 0 6.621-2.454 7.342-6.01.844-4.16 2.259-8.193 4.205-11.988 1.89-3.684.434-8.205-3.251-10.095z"/><path d="m93.226 57.889h-14.797c-4.142 0-7.5 3.358-7.5 7.5s3.358 7.5 7.5 7.5h14.797c4.142 0 7.5-3.358 7.5-7.5s-3.358-7.5-7.5-7.5z"/><path d="m46.869 60.79c-5.343 1.664-10.448 4.025-15.173 7.019-3.499 2.217-4.538 6.851-2.321 10.35 1.428 2.253 3.858 3.487 6.343 3.487 1.373 0 2.761-.376 4.007-1.166 3.614-2.29 7.518-4.096 11.604-5.368 3.955-1.231 6.163-5.436 4.932-9.391-1.233-3.954-5.437-6.161-9.392-4.931z"/><path d="m10 131.644c-4.142 0-7.5 3.358-7.5 7.5v14.797c0 4.142 3.358 7.5 7.5 7.5s7.5-3.358 7.5-7.5v-14.797c0-4.142-3.358-7.5-7.5-7.5z"/><path d="m10 309.209c-4.142 0-7.5 3.358-7.5 7.5v14.797c0 4.142 3.358 7.5 7.5 7.5s7.5-3.358 7.5-7.5v-14.797c0-4.142-3.358-7.5-7.5-7.5z"/><path d="m10 353.601c-4.142 0-7.5 3.358-7.5 7.5v14.797c0 4.142 3.358 7.5 7.5 7.5s7.5-3.358 7.5-7.5v-14.797c0-4.143-3.358-7.5-7.5-7.5z"/><path d="m10 397.992c-4.142 0-7.5 3.358-7.5 7.5v14.797c0 4.142 3.358 7.5 7.5 7.5s7.5-3.358 7.5-7.5v-14.797c0-4.142-3.358-7.5-7.5-7.5z"/><path d="m10 264.818c-4.142 0-7.5 3.358-7.5 7.5v14.797c0 4.142 3.358 7.5 7.5 7.5s7.5-3.358 7.5-7.5v-14.797c0-4.142-3.358-7.5-7.5-7.5z"/><path d="m137.617 57.889h-14.797c-4.142 0-7.5 3.358-7.5 7.5s3.358 7.5 7.5 7.5h14.797c4.142 0 7.5-3.358 7.5-7.5s-3.358-7.5-7.5-7.5z"/><path d="m174.686 57.889h-7.493c-4.142 0-7.5 3.358-7.5 7.5s3.358 7.5 7.5 7.5h7.493c4.142 0 7.5-3.358 7.5-7.5s-3.358-7.5-7.5-7.5z"/><path d="m502 442.388c-4.142 0-7.5 3.358-7.5 7.5v7.501c0 4.142 3.358 7.5 7.5 7.5s7.5-3.358 7.5-7.5v-7.501c0-4.142-3.358-7.5-7.5-7.5z"/><path d="m502 309.135c-4.142 0-7.5 3.358-7.5 7.5v14.805c0 4.142 3.358 7.5 7.5 7.5s7.5-3.358 7.5-7.5v-14.805c0-4.142-3.358-7.5-7.5-7.5z"/><path d="m502 264.718c-4.142 0-7.5 3.358-7.5 7.5v14.806c0 4.142 3.358 7.5 7.5 7.5s7.5-3.358 7.5-7.5v-14.806c0-4.142-3.358-7.5-7.5-7.5z"/><path d="m502 353.551c-4.142 0-7.5 3.358-7.5 7.5v14.806c0 4.142 3.358 7.5 7.5 7.5s7.5-3.358 7.5-7.5v-14.806c0-4.142-3.358-7.5-7.5-7.5z"/><path d="m502 397.967c-4.142 0-7.5 3.358-7.5 7.5v14.805c0 4.142 3.358 7.5 7.5 7.5s7.5-3.358 7.5-7.5v-14.805c0-4.142-3.358-7.5-7.5-7.5z"/><path d="m502 220.302c-4.142 0-7.5 3.358-7.5 7.5v14.805c0 4.142 3.358 7.5 7.5 7.5s7.5-3.358 7.5-7.5v-14.805c0-4.142-3.358-7.5-7.5-7.5z"/><path d="m502 175.886c-4.142 0-7.5 3.358-7.5 7.5v14.805c0 4.142 3.358 7.5 7.5 7.5s7.5-3.358 7.5-7.5v-14.805c0-4.142-3.358-7.5-7.5-7.5z"/><path d="m502 131.47c-4.142 0-7.5 3.358-7.5 7.5v14.806c0 4.142 3.358 7.5 7.5 7.5s7.5-3.358 7.5-7.5v-14.806c0-4.142-3.358-7.5-7.5-7.5z"/><path d="m433.618 57.889h-14.806c-4.142 0-7.5 3.358-7.5 7.5s3.358 7.5 7.5 7.5h14.806c4.142 0 7.5-3.358 7.5-7.5s-3.358-7.5-7.5-7.5z"/><path d="m389.201 57.889h-14.805c-4.142 0-7.5 3.358-7.5 7.5s3.358 7.5 7.5 7.5h14.805c4.142 0 7.5-3.358 7.5-7.5s-3.358-7.5-7.5-7.5z"/><path d="m500.897 116.937c.491 0 .991-.049 1.491-.149 4.061-.819 6.688-4.775 5.869-8.835-1.111-5.507-2.959-10.839-5.495-15.85-1.87-3.696-6.383-5.175-10.078-3.306-3.696 1.87-5.176 6.382-3.306 10.078 1.926 3.807 3.331 7.859 4.175 12.043.718 3.561 3.847 6.019 7.344 6.019z"/><path d="m480.433 67.493c-4.759-3.018-9.897-5.368-15.273-6.986-3.965-1.196-8.149 1.053-9.343 5.02-1.194 3.966 1.053 8.149 5.02 9.343 4.067 1.225 7.958 3.004 11.564 5.291 1.246.79 2.635 1.167 4.009 1.167 2.483 0 4.913-1.232 6.341-3.485 2.218-3.498 1.181-8.132-2.318-10.35z"/><path d="m344.807 57.889h-7.493c-4.142 0-7.5 3.358-7.5 7.5s3.358 7.5 7.5 7.5h7.493c4.142 0 7.5-3.358 7.5-7.5s-3.358-7.5-7.5-7.5z"/></g><path d="m256 0c-17.201 0-31.194 13.994-31.194 31.194v17.513c0 4.142 3.358 7.5 7.5 7.5s7.5-3.358 7.5-7.5v-17.513c0-8.929 7.264-16.194 16.194-16.194s16.194 7.265 16.194 16.194v17.513c0 4.142 3.358 7.5 7.5 7.5s7.5-3.358 7.5-7.5v-17.513c0-17.2-13.993-31.194-31.194-31.194z" fill="#4362a0"/><path d="m284.845 102.792h-57.69c-5.69 0-10.302-4.612-10.302-10.302v-39.147c0-5.69 4.612-10.302 10.302-10.302h57.69c5.69 0 10.302 4.612 10.302 10.302v39.147c0 5.689-4.612 10.302-10.302 10.302z" fill="#ffd54f"/><path d="m284.845 43.041h-30c5.69 0 10.302 4.612 10.302 10.302v39.147c0 5.689-4.612 10.302-10.302 10.302h30c5.69 0 10.302-4.612 10.302-10.302v-39.147c0-5.689-4.612-10.302-10.302-10.302z" fill="#ffc328"/><path d="m270.711 63.645c0-4.142-3.358-7.5-7.5-7.5h-14.423c-4.142 0-7.5 3.358-7.5 7.5 0 4.045 3.204 7.333 7.211 7.485v11.612c0 4.142 3.358 7.5 7.5 7.5s7.5-3.358 7.5-7.5v-11.612c4.008-.152 7.212-3.44 7.212-7.485z" fill="#4362a0"/><path d="m62.33 259.75h387.34v234.59h-387.34z" fill="#f3f3f3"/><path d="m418.769 259.751h30.905v234.591h-30.905z" fill="#e4e4e4"/><path d="m346.656 324.148h72.113v126.973h-72.113z" fill="#bbf7ff"/><path d="m387.863 324.148h30.905v126.973h-30.905z" fill="#8bf0ff"/><path d="m93.231 324.148h72.113v126.973h-72.113z" fill="#bbf7ff"/><path d="m134.439 324.148h30.905v126.973h-30.905z" fill="#8bf0ff"/><path d="m194.189 324.148h123.622v170.193h-123.622z" fill="#d67b42"/><path d="m286.905 324.148h30.905v170.193h-30.905z" fill="#be652b"/><g fill="#a75224"><path d="m418.77 316.65h-72.11c-4.15 0-7.5 3.36-7.5 7.5v126.97c0 4.14 3.35 7.5 7.5 7.5h72.11c4.14 0 7.5-3.36 7.5-7.5v-126.97c0-4.14-3.36-7.5-7.5-7.5zm-7.5 126.97h-57.11v-111.97h57.11z"/><path d="m165.34 316.65h-72.11c-4.14 0-7.5 3.36-7.5 7.5v126.97c0 4.14 3.36 7.5 7.5 7.5h72.11c4.15 0 7.5-3.36 7.5-7.5v-126.97c0-4.14-3.35-7.5-7.5-7.5zm-7.5 126.97h-57.11v-111.97h57.11z"/><path d="m317.81 316.65h-123.62c-4.14 0-7.5 3.36-7.5 7.5v170.19h15v-162.69h108.62v162.69h15v-170.19c0-4.14-3.36-7.5-7.5-7.5z"/></g><path d="m471.266 272.998h-430.532c-2.624 0-4.537-2.484-3.868-5.021l31.87-120.773c.463-1.756 2.052-2.979 3.868-2.979h366.792c1.816 0 3.404 1.223 3.868 2.979l31.87 120.773c.669 2.537-1.244 5.021-3.868 5.021z" fill="#f75632"/><path d="m439.396 144.225h-27.824l33.981 128.773h25.713c2.624 0 4.537-2.484 3.868-5.021l-31.87-120.773c-.464-1.755-2.052-2.979-3.868-2.979z" fill="#e33629"/><path d="m496.547 512h-481.094c-8.535 0-15.453-6.918-15.453-15.453 0-8.534 6.918-15.453 15.453-15.453h481.095c8.534 0 15.453 6.918 15.453 15.453-.001 8.535-6.919 15.453-15.454 15.453z" fill="#7be492"/><path d="m496.547 481.095h-30.905c8.534 0 15.453 6.918 15.453 15.453 0 8.534-6.919 15.453-15.453 15.453h30.905c8.534 0 15.453-6.919 15.453-15.453 0-8.535-6.919-15.453-15.453-15.453z" fill="#45d987"/><circle cx="273.407" cy="408.961" fill="#ffd54f" r="17.407"/></g></svg>